<svg width="17" height="17" viewBox="0 0 17 17" fill="none" xmlns="http://www.w3.org/2000/svg">
<g id="bx:bxl-youtube">
<path id="Vector" d="M15.295 5.10213C15.2143 4.80278 15.0567 4.52979 14.8377 4.31033C14.6187 4.09086 14.3461 3.93257 14.0469 3.85121C12.9377 3.54662 8.49999 3.54167 8.49999 3.54167C8.49999 3.54167 4.06299 3.53671 2.95303 3.82783C2.65406 3.91294 2.38199 4.07347 2.16293 4.29401C1.94388 4.51456 1.78519 4.78771 1.70211 5.08725C1.40957 6.1965 1.40674 8.49717 1.40674 8.49717C1.40674 8.49717 1.40391 10.8092 1.69432 11.9071C1.85724 12.5141 2.33536 12.9937 2.94311 13.1573C4.0637 13.4619 8.48936 13.4668 8.48936 13.4668C8.48936 13.4668 12.9271 13.4718 14.0363 13.1814C14.3356 13.1002 14.6085 12.9422 14.828 12.7232C15.0475 12.5042 15.2061 12.2317 15.2879 11.9326C15.5812 10.824 15.5833 8.52408 15.5833 8.52408C15.5833 8.52408 15.5975 6.21138 15.295 5.10213ZM7.08049 10.6285L7.08403 6.37854L10.7723 8.50708L7.08049 10.6285Z" fill="#878787"/>
</g>
</svg>
