<svg width="23" height="23" viewBox="0 0 23 23" fill="none" xmlns="http://www.w3.org/2000/svg">
<g id="ei:sc-vk">
<path id="Vector" fill-rule="evenodd" clip-rule="evenodd" d="M11.546 16.514H12.466C12.466 16.514 12.742 16.468 12.88 16.33C13.018 16.192 13.018 15.916 13.018 15.916C13.018 15.916 13.018 14.72 13.57 14.536C14.122 14.352 14.858 15.732 15.594 16.238C16.146 16.652 16.56 16.56 16.56 16.56L18.584 16.514C18.584 16.514 19.642 16.468 19.136 15.594C19.09 15.548 18.86 14.996 17.618 13.846C16.33 12.65 16.514 12.88 18.032 10.81C18.952 9.568 19.32 8.832 19.228 8.464C19.136 8.142 18.446 8.234 18.446 8.234H16.146C16.146 8.234 15.962 8.188 15.87 8.28C15.732 8.372 15.686 8.51 15.686 8.51C15.686 8.51 15.318 9.476 14.858 10.304C13.846 12.006 13.432 12.098 13.294 12.006C12.926 11.776 13.018 10.994 13.018 10.488C13.018 8.832 13.294 8.142 12.512 7.958C12.282 7.912 12.098 7.866 11.454 7.866C10.626 7.866 9.93601 7.866 9.56801 8.05C9.29201 8.188 9.10801 8.464 9.24601 8.464C9.38401 8.464 9.75201 8.556 9.93601 8.786C10.12 9.2 10.12 9.89 10.12 9.89C10.12 9.89 10.258 11.868 9.79801 12.098C9.47601 12.282 9.06201 11.914 8.14201 10.35C7.68201 9.568 7.31401 8.648 7.31401 8.648C7.31401 8.648 7.26801 8.464 7.13001 8.372C6.99201 8.28 6.76201 8.234 6.76201 8.234H4.60001C4.60001 8.234 4.27801 8.234 4.14001 8.372C4.04801 8.51 4.14001 8.74 4.14001 8.74C4.14001 8.74 5.84201 12.696 7.77401 14.72C9.56801 16.652 11.546 16.514 11.546 16.514Z" fill="#878787"/>
</g>
</svg>
