<svg width="18" height="18" viewBox="0 0 18 18" fill="none" xmlns="http://www.w3.org/2000/svg">
<g id="ion:mail">
<path id="Vector" d="M14.9062 2.8125H3.09375C2.57178 2.81306 2.07134 3.02066 1.70225 3.38975C1.33316 3.75884 1.12556 4.25928 1.125 4.78125V13.2188C1.12556 13.7407 1.33316 14.2412 1.70225 14.6103C2.07134 14.9793 2.57178 15.1869 3.09375 15.1875H14.9062C15.4282 15.1869 15.9287 14.9793 16.2978 14.6103C16.6668 14.2412 16.8744 13.7407 16.875 13.2188V4.78125C16.8744 4.25928 16.6668 3.75884 16.2978 3.38975C15.9287 3.02066 15.4282 2.81306 14.9062 2.8125ZM14.4077 6.06902L9.34523 10.0065C9.24652 10.0833 9.12504 10.1249 9 10.1249C8.87496 10.1249 8.75348 10.0833 8.65477 10.0065L3.59227 6.06902C3.53279 6.02411 3.48283 5.96782 3.44529 5.90342C3.40775 5.83903 3.38339 5.76782 3.37361 5.69393C3.36383 5.62004 3.36884 5.54494 3.38834 5.473C3.40783 5.40106 3.44143 5.33371 3.48718 5.27487C3.53293 5.21603 3.58992 5.16687 3.65484 5.13024C3.71975 5.09362 3.7913 5.07025 3.86532 5.06152C3.93934 5.05278 4.01436 5.05884 4.08602 5.07935C4.15767 5.09986 4.22454 5.1344 4.28273 5.18098L9 8.84988L13.7173 5.18098C13.8352 5.0919 13.9835 5.05283 14.13 5.07222C14.2766 5.09161 14.4096 5.1679 14.5003 5.28459C14.591 5.40128 14.6322 5.549 14.6149 5.69579C14.5975 5.84259 14.5231 5.97666 14.4077 6.06902Z" fill="#E72945"/>
</g>
</svg>
