<svg width="19" height="19" viewBox="0 0 19 19" fill="none" xmlns="http://www.w3.org/2000/svg">
<g id="ph:lightning-fill">
<path id="Vector" d="M15.8717 9.31149L7.55923 18.2177C7.47114 18.3117 7.35486 18.3746 7.22794 18.3967C7.10103 18.4188 6.97036 18.3991 6.85565 18.3404C6.74095 18.2818 6.64843 18.1874 6.59206 18.0715C6.53569 17.9557 6.51853 17.8247 6.54317 17.6982L7.63122 12.2557L3.35399 10.6497C3.26213 10.6153 3.18022 10.5587 3.11556 10.485C3.0509 10.4112 3.00552 10.3226 2.98347 10.227C2.96141 10.1315 2.96338 10.0319 2.98918 9.93732C3.01498 9.8427 3.06382 9.75595 3.13134 9.68481L11.4438 0.778558C11.5319 0.684549 11.6482 0.621742 11.7751 0.599614C11.902 0.577486 12.0327 0.597239 12.1474 0.65589C12.2621 0.714542 12.3546 0.80891 12.411 0.924755C12.4674 1.0406 12.4845 1.17164 12.4599 1.29809L11.3689 6.74649L15.6461 8.35035C15.7373 8.38495 15.8185 8.44146 15.8827 8.51492C15.9468 8.58837 15.9919 8.67649 16.0139 8.7715C16.0359 8.86651 16.0342 8.96547 16.0089 9.05965C15.9836 9.15383 15.9354 9.24032 15.8688 9.31149H15.8717Z" fill="#E72945"/>
</g>
</svg>
