<svg width="17" height="17" viewBox="0 0 17 17" fill="none" xmlns="http://www.w3.org/2000/svg">
<g id="ic:baseline-photo-camera">
<path id="Vector" d="M8.49994 10.7667C9.75179 10.7667 10.7666 9.75185 10.7666 8.5C10.7666 7.24816 9.75179 6.23334 8.49994 6.23334C7.2481 6.23334 6.23328 7.24816 6.23328 8.5C6.23328 9.75185 7.2481 10.7667 8.49994 10.7667Z" fill="#E72945"/>
<path id="Vector_2" d="M6.37496 1.41667L5.07871 2.83334H2.83329C2.05413 2.83334 1.41663 3.47084 1.41663 4.25001V12.75C1.41663 13.5292 2.05413 14.1667 2.83329 14.1667H14.1666C14.9458 14.1667 15.5833 13.5292 15.5833 12.75V4.25001C15.5833 3.47084 14.9458 2.83334 14.1666 2.83334H11.9212L10.625 1.41667H6.37496ZM8.49996 12.0417C6.54496 12.0417 4.95829 10.455 4.95829 8.5C4.95829 6.545 6.54496 4.95834 8.49996 4.95834C10.455 4.95834 12.0416 6.545 12.0416 8.5C12.0416 10.455 10.455 12.0417 8.49996 12.0417Z" fill="#E72945"/>
</g>
</svg>
