<svg width="17" height="17" viewBox="0 0 17 17" fill="none" xmlns="http://www.w3.org/2000/svg">
<g id="bxs:up-arrow">
<path id="Vector" d="M3.54165 14.875V2.125C3.54206 1.99591 3.57766 1.86938 3.64463 1.75902C3.7116 1.64866 3.80739 1.55866 3.92171 1.4987C4.03603 1.43873 4.16453 1.41108 4.2934 1.41872C4.42226 1.42636 4.5466 1.469 4.65303 1.54204L13.8614 7.91704C14.2432 8.18125 14.2432 8.81733 13.8614 9.08225L4.65303 15.4573C4.54682 15.531 4.42242 15.5743 4.29334 15.5824C4.16426 15.5904 4.03545 15.5629 3.92089 15.5029C3.80633 15.4429 3.71041 15.3526 3.64355 15.2419C3.57669 15.1312 3.54145 15.0043 3.54165 14.875Z" fill="#E72945"/>
</g>
</svg>
