<svg width="20" height="20" viewBox="0 0 20 20" fill="none" xmlns="http://www.w3.org/2000/svg">
<g id="carbon:share">
<path id="Vector" d="M14.3751 12.5C13.9072 12.5024 13.4459 12.6097 13.0251 12.8142C12.6043 13.0186 12.2348 13.3149 11.9438 13.6813L7.37505 10.825C7.54156 10.2876 7.54156 9.7124 7.37505 9.17501L11.9438 6.31876C12.4075 6.89295 13.0595 7.28449 13.7843 7.42401C14.509 7.56353 15.2598 7.44203 15.9035 7.08102C16.5473 6.72002 17.0425 6.14281 17.3014 5.45166C17.5603 4.76051 17.5662 4.00002 17.3181 3.3049C17.0701 2.60979 16.5839 2.02492 15.9459 1.6539C15.3079 1.28288 14.5591 1.14966 13.8323 1.27784C13.1054 1.40602 12.4474 1.78732 11.9748 2.35421C11.5021 2.92109 11.2454 3.63696 11.2501 4.37501C11.253 4.65449 11.2951 4.93219 11.3751 5.20001L6.8063 8.05626C6.40296 7.54849 5.85164 7.17879 5.22877 6.99838C4.60591 6.81797 3.94234 6.8358 3.33006 7.04939C2.71778 7.26298 2.18711 7.66176 1.81161 8.19045C1.43611 8.71913 1.23438 9.35154 1.23438 10C1.23437 10.6485 1.43611 11.2809 1.81161 11.8096C2.18711 12.3383 2.71778 12.737 3.33006 12.9506C3.94234 13.1642 4.60591 13.182 5.22877 13.0016C5.85164 12.8212 6.40296 12.4515 6.8063 11.9438L11.3751 14.8C11.2951 15.0678 11.253 15.3455 11.2501 15.625C11.2501 16.2431 11.4333 16.8473 11.7767 17.3612C12.1201 17.8751 12.6081 18.2756 13.1792 18.5121C13.7502 18.7487 14.3785 18.8105 14.9847 18.69C15.5909 18.5694 16.1477 18.2718 16.5848 17.8347C17.0218 17.3977 17.3194 16.8409 17.44 16.2347C17.5606 15.6285 17.4987 15.0001 17.2622 14.4291C17.0257 13.8581 16.6251 13.37 16.1112 13.0267C15.5973 12.6833 14.9931 12.5 14.3751 12.5ZM14.3751 2.50001C14.7459 2.50001 15.1084 2.60997 15.4167 2.816C15.7251 3.02203 15.9654 3.31486 16.1073 3.65747C16.2492 4.00009 16.2864 4.37709 16.214 4.7408C16.1417 5.10451 15.9631 5.43861 15.7009 5.70083C15.4387 5.96305 15.1046 6.14163 14.7408 6.21398C14.3771 6.28633 14.0001 6.24919 13.6575 6.10728C13.3149 5.96537 13.0221 5.72504 12.816 5.4167C12.61 5.10836 12.5001 4.74585 12.5001 4.37501C12.5001 3.87772 12.6976 3.40081 13.0492 3.04918C13.4009 2.69755 13.8778 2.50001 14.3751 2.50001ZM4.37505 11.875C4.00421 11.875 3.6417 11.765 3.33336 11.559C3.02502 11.353 2.78469 11.0601 2.64278 10.7175C2.50087 10.3749 2.46373 9.99793 2.53608 9.63421C2.60843 9.2705 2.78701 8.9364 3.04923 8.67418C3.31145 8.41196 3.64555 8.23338 4.00926 8.16103C4.37297 8.08869 4.74997 8.12582 5.09259 8.26773C5.4352 8.40965 5.72803 8.64997 5.93406 8.95831C6.14009 9.26665 6.25005 9.62917 6.25005 10C6.25005 10.4973 6.05251 10.9742 5.70088 11.3258C5.34925 11.6775 4.87233 11.875 4.37505 11.875ZM14.3751 17.5C14.0042 17.5 13.6417 17.39 13.3334 17.184C13.025 16.978 12.7847 16.6852 12.6428 16.3425C12.5009 15.9999 12.4637 15.6229 12.5361 15.2592C12.6084 14.8955 12.787 14.5614 13.0492 14.2992C13.3115 14.037 13.6455 13.8584 14.0093 13.786C14.373 13.7137 14.75 13.7508 15.0926 13.8927C15.4352 14.0346 15.728 14.275 15.9341 14.5833C16.1401 14.8917 16.2501 15.2542 16.2501 15.625C16.2501 16.1223 16.0525 16.5992 15.7009 16.9508C15.3492 17.3025 14.8723 17.5 14.3751 17.5Z" fill="#B4B4B4"/>
</g>
</svg>
